<?xml version="1.0" encoding="utf-8"?>
<!-- Generator: Adobe Illustrator 16.2.0, SVG Export Plug-In . SVG Version: 6.00 Build 0)  -->
<!DOCTYPE svg PUBLIC "-//W3C//DTD SVG 1.1//EN" "http://www.w3.org/Graphics/SVG/1.1/DTD/svg11.dtd">
<svg version="1.1" id="Capa_1" xmlns="http://www.w3.org/2000/svg" xmlns:xlink="http://www.w3.org/1999/xlink" x="0px" y="0px"
	 width="40px" height="50px" viewBox="0 0 40 50" enable-background="new 0 0 40 50" xml:space="preserve">
<g>
	<g>
		<path d="M40,43.335l-2.881-32.426c-0.051-0.642-0.59-1.128-1.244-1.128h-6.072C29.793,4.388,25.4,0,20,0
			c-5.399,0-9.793,4.388-9.804,9.781H4.125c-0.643,0-1.181,0.486-1.244,1.128L0,43.335c0,0.041,0,0.072,0,0.114
			C0,47.061,3.327,50,7.409,50h25.183C36.674,50,40,47.061,40,43.449C40,43.407,40,43.376,40,43.335z M20,2.484
			c4.03,0,7.306,3.271,7.316,7.297H12.684C12.694,5.754,15.969,2.484,20,2.484z M32.592,47.506H7.409
			c-2.694,0-4.891-1.791-4.922-4.016l2.778-31.226h4.932v4.357c0,0.683,0.56,1.242,1.244,1.242c0.684,0,1.244-0.559,1.244-1.242
			v-4.357h14.632v4.357c0,0.683,0.559,1.242,1.244,1.242c0.684,0,1.242-0.559,1.242-1.242v-4.357h4.934L37.514,43.5
			C37.482,45.715,35.285,47.506,32.592,47.506z"/>
	</g>
</g>
</svg>
